<svg id="Layer_1" data-name="Layer 1" xmlns="http://www.w3.org/2000/svg" xmlns:xlink="http://www.w3.org/1999/xlink" viewBox="0 0 55.74 55.74">
  <defs>
    <clipPath id="clip-path" transform="translate(-80.29 -16.26)">
      <circle cx="108.16" cy="44.13" r="27.87" fill="none"/>
    </clipPath>
  </defs>
  <title>employer icon</title>
  <g id="men_3" data-name="men 3">
    <g>
      <circle cx="27.87" cy="27.87" r="27.87" fill="#837977"/>
      <path d="M136,44.13a27.87,27.87,0,0,0-27.87-27.87V72A27.87,27.87,0,0,0,136,44.13Z" transform="translate(-80.29 -16.26)" fill="#7c7371"/>
    </g>
    <g clip-path="url(#clip-path)">
      <g>
        <g>
          <path d="M113.23,56.49s7.76,1.13,8.91,2.33c1,1,3.07,11,3.55,13.18H108.16V57.87Z" transform="translate(-80.29 -16.26)" fill="#2a2e35"/>
          <rect x="23.79" y="35.08" width="8.16" height="8.95" fill="#d9a88c"/>
          <g>
            <path d="M108.16,25.55c4,0,10.23,2.25,10.23,12.81,0,6.09-2,10.09-2.85,11.19s-5.28,3.18-7.38,3.18V25.55Z" transform="translate(-80.29 -16.26)" fill="#eac0a7"/>
            <path d="M120.36,40.88c0.17-1.69-.63-3.18-1.79-3.34s-2.25,1.08-2.43,2.76,0.63,3.18,1.8,3.34S120.19,42.57,120.36,40.88Z" transform="translate(-80.29 -16.26)" fill="#eac0a7"/>
          </g>
          <g>
            <path d="M108.16,25.55c-4,0-10.23,2.25-10.23,12.81,0,6.09,2,10.09,2.85,11.19s5.28,3.18,7.38,3.18V25.55Z" transform="translate(-80.29 -16.26)" fill="#f2d8bc"/>
            <path d="M96,40.88c-0.17-1.69.63-3.18,1.79-3.34s2.25,1.08,2.43,2.76-0.63,3.18-1.8,3.34S96.14,42.57,96,40.88Z" transform="translate(-80.29 -16.26)" fill="#f2d8bc"/>
          </g>
          <path d="M102.82,27.76s-3.46,4.11-2.14,7.94c0.22,4.57-.22,6.11-1.69,7.36,0.37-4.42-.07-5.89-1.69-5.38C96.64,34.22,98.07,24.9,102.82,27.76Z" transform="translate(-80.29 -16.26)" fill="#670e0e"/>
          <path d="M113.47,27.76s3.46,4.11,2.14,7.94c-0.22,4.57.22,6.11,1.69,7.36-0.37-4.42.07-5.89,1.69-5.38C119.66,34.22,118.23,24.9,113.47,27.76Z" transform="translate(-80.29 -16.26)" fill="#670e0e"/>
          <path d="M103.09,56.49s-7.76,1.13-8.91,2.33c-1,1-3.07,11-3.55,13.18h17.53V57.87Z" transform="translate(-80.29 -16.26)" fill="#30353b"/>
          <polyline points="33.03 40.02 27.87 41.08 22.7 40.02 27.87 55.74" fill="#b9c7d0"/>
          <polygon points="27.44 43.2 26.6 53.83 27.87 55.74 29.14 53.83 28.3 43.2 27.44 43.2" fill="#129e95"/>
          <path d="M104.44,63.07L100.33,57a20,20,0,0,1,3.6-.92L108.16,72l-5.93-8.49Z" transform="translate(-80.29 -16.26)" fill="#3b414d"/>
          <path d="M111.89,63.07L116,57a20,20,0,0,0-3.6-.92L108.16,72l5.93-8.49Z" transform="translate(-80.29 -16.26)" fill="#3b414d"/>
          <path d="M109.55,58.78l-1.39,1.44-1.39-1.44,1.39-1.44Z" transform="translate(-80.29 -16.26)" fill="#129e95"/>
          <polygon points="27.87 41.08 32.01 38.99 34.15 40.23 29.71 43.78 27.87 41.08" fill="#fff"/>
          <polygon points="27.87 41.08 23.73 38.99 21.59 40.23 25.95 43.78 27.87 41.08" fill="#fff"/>
        </g>
        <path d="M117.94,29.56c-1.63-6.7-11.56-12-18.54-1.45a2.84,2.84,0,0,0,1.5,3s1.3-3,7.28-1.64c3-.65,5.87-1.13,7.21,1.62S117.94,29.56,117.94,29.56Z" transform="translate(-80.29 -16.26)" fill="#670e0e"/>
        <path d="M114,48.21c-2,0-3.51-1.66-5.86-1.66s-3.81,1.66-5.86,1.66c-2.25,0-3.66-3.87-4.09-5.23a17.11,17.11,0,0,0,2.57,7.31c0.8,1,5.27,3.18,7.38,3.18h0c2.1,0,6.58-2.17,7.38-3.18A17.13,17.13,0,0,0,118.11,43C117.69,44.33,116.27,48.21,114,48.21Z" transform="translate(-80.29 -16.26)" fill="#670e0e"/>
        <path d="M108.16,50.07a1.11,1.11,0,0,0,1.25-.65h-2.5A1.11,1.11,0,0,0,108.16,50.07Z" transform="translate(-80.29 -16.26)" fill="#fff"/>
      </g>
    </g>
  </g>
</svg>
