<svg xmlns="http://www.w3.org/2000/svg" width="28" height="24" viewBox="0 0 28 24"><g><g><path fill="#fff" d="M27.158 2.695a2.55 2.55 0 0 1-2.547 2.538H3.39A2.55 2.55 0 0 1 .842 2.695 2.55 2.55 0 0 1 3.39.158H24.61a2.55 2.55 0 0 1 2.547 2.537zm0 9.305a2.55 2.55 0 0 1-2.547 2.538H3.39A2.55 2.55 0 0 1 .842 12 2.55 2.55 0 0 1 3.39 9.462H24.61A2.55 2.55 0 0 1 27.158 12zm0 9.304a2.55 2.55 0 0 1-2.547 2.538H3.39a2.55 2.55 0 0 1-2.547-2.538 2.55 2.55 0 0 1 2.547-2.537H24.61a2.55 2.55 0 0 1 2.547 2.537z"/></g></g></svg>