<svg id="Layer_1" data-name="Layer 1" xmlns="http://www.w3.org/2000/svg" xmlns:xlink="http://www.w3.org/1999/xlink" viewBox="0 0 55.74 55.74">
  <defs>
    <clipPath id="clip-path" transform="translate(-10.56 -16.26)">
      <circle cx="38.43" cy="44.13" r="27.87" fill="none"/>
    </clipPath>
  </defs>
  <title>worker-employer-icon</title>
  <g id="men_2" data-name="men 2">
    <g>
      <circle cx="27.87" cy="27.87" r="27.87" fill="#f5a11d"/>
      <path d="M66.3,44.13A27.87,27.87,0,0,0,38.43,16.26V72A27.87,27.87,0,0,0,66.3,44.13Z" transform="translate(-10.56 -16.26)" fill="#ed9b21"/>
    </g>
    <g clip-path="url(#clip-path)">
      <g>
        <rect x="23.79" y="34.9" width="8.16" height="8.95" fill="#d9a88c"/>
        <path d="M33.36,56.49s-7.76,1.13-8.91,2.33c-1,1-3.07,11-3.55,13.18H38.43V56.92Z" transform="translate(-10.56 -16.26)" fill="#c0d0d8"/>
        <path d="M43.5,56.49s7.76,1.13,8.91,2.33c1,1,3.07,11,3.55,13.18H38.43V56.92Z" transform="translate(-10.56 -16.26)" fill="#a7bdc8"/>
        <polygon points="27.34 42.13 26.31 52.76 27.87 55.7 29.43 52.76 28.4 42.13 27.34 42.13" fill="#13a89a"/>
        <path d="M39.82,58.31L38.43,59.7,37,58.31l1.39-1.39Z" transform="translate(-10.56 -16.26)" fill="#13a89a"/>
        <g>
          <path d="M38.43,25.55c4,0,10.23,2.25,10.23,12.81,0,6.1-2,10.09-2.85,11.19s-5.28,3.18-7.38,3.18V25.55Z" transform="translate(-10.56 -16.26)" fill="#eac0a7"/>
          <path d="M50.63,40.88c0.17-1.69-.63-3.18-1.79-3.34s-2.25,1.08-2.43,2.76,0.63,3.18,1.8,3.34S50.45,42.57,50.63,40.88Z" transform="translate(-10.56 -16.26)" fill="#eac0a7"/>
        </g>
        <g>
          <path d="M38.43,25.55c-4,0-10.23,2.25-10.23,12.81,0,6.1,2,10.09,2.85,11.19s5.28,3.18,7.38,3.18V25.55Z" transform="translate(-10.56 -16.26)" fill="#f2d8bc"/>
          <path d="M26.23,40.88c-0.17-1.69.63-3.18,1.79-3.34s2.25,1.08,2.43,2.76-0.63,3.18-1.8,3.34S26.4,42.57,26.23,40.88Z" transform="translate(-10.56 -16.26)" fill="#f2d8bc"/>
        </g>
        <polygon points="27.87 40.65 23.73 38.99 22.7 40.02 24.77 44.59 27.87 40.65" fill="#fff"/>
        <polygon points="27.87 40.65 32.01 38.99 33.03 40.02 30.97 44.59 27.87 40.65" fill="#fff"/>
        <rect x="18.89" y="51.2" width="5.17" height="1.14" fill="#7f97a3"/>
        <rect x="31.68" y="51.2" width="5.17" height="1.14" fill="#7f97a3"/>
        <path d="M29.56,41.06h0.71s-0.43-2.75.83-3.64V35.65s-0.49-.06-0.49-2.15,2.49-3.58,7.82-3.58V23.51S27.9,24.65,27.9,32.29v5.26a1.77,1.77,0,0,1,1.32.32C29.81,38.36,29.56,41.06,29.56,41.06Z" transform="translate(-10.56 -16.26)" fill="#8b603d"/>
        <path d="M47.2,41.06H46.49s0.43-2.75-.83-3.64V35.65s0.49-.06.49-2.15-2.49-3.58-7.82-3.58V23.51s10.53,1.14,10.53,8.78v5.26a1.77,1.77,0,0,0-1.32.32C46.95,38.36,47.2,41.06,47.2,41.06Z" transform="translate(-10.56 -16.26)" fill="#8b603d"/>
        <path d="M38.43,48.19c1.85,0,3.34-.61,3.34-1.36H35.08C35.08,47.58,36.58,48.19,38.43,48.19Z" transform="translate(-10.56 -16.26)" fill="#fff"/>
      </g>
    </g>
  </g>
</svg>
