<svg xmlns="http://www.w3.org/2000/svg" width="41" height="41" viewBox="0 0 41 41"><g><g><path fill="#cdcdcd" d="M16.054 30.894s-.462-.276-.852.114l-8.47 8.47c-1.69 1.69-4.051 2.092-5.55.593l-.258-.257c-1.498-1.499-1.096-3.861.594-5.55l8.488-8.488c.371-.372.096-.834.096-.834-3.834-6.39-3-14.575 2.502-20.078 6.487-6.486 17.041-6.486 23.528 0 6.486 6.487 6.486 17.041 0 23.528-5.503 5.502-13.687 6.336-20.078 2.502zM33.06 25.32c4.793-4.793 4.793-12.591 0-17.384-4.793-4.793-12.591-4.793-17.384 0-4.793 4.793-4.793 12.591 0 17.384 4.793 4.793 12.591 4.793 17.384 0zm-16.322-9.68a1.717 1.717 0 0 1-1.58-2.387c2.322-5.488 8.677-8.064 14.166-5.741a1.717 1.717 0 0 1-1.339 3.162c-3.745-1.584-8.08.173-9.665 3.918a1.717 1.717 0 0 1-1.582 1.049z"/></g></g></svg>