<svg xmlns="http://www.w3.org/2000/svg" width="58" height="58" viewBox="0 0 58 58"><g><g><path fill="#fff" d="M58 29c0 16.015-12.985 29-29 29S0 45.015 0 29 12.985 0 29 0 58 12.98 58 29zM46.994 18.803a14.292 14.292 0 0 1-4.1 1.124 7.166 7.166 0 0 0 3.14-3.951c-1.38.814-2.91 1.41-4.534 1.731a7.141 7.141 0 0 0-5.215-2.253 7.14 7.14 0 0 0-7.14 7.137c0 .557.062 1.106.184 1.628a20.262 20.262 0 0 1-14.716-7.46 7.105 7.105 0 0 0-.965 3.587 7.137 7.137 0 0 0 3.176 5.942 7.126 7.126 0 0 1-3.234-.895v.09a7.147 7.147 0 0 0 5.728 7 7.292 7.292 0 0 1-3.227.124 7.15 7.15 0 0 0 6.67 4.96 14.34 14.34 0 0 1-10.57 2.952 20.22 20.22 0 0 0 10.943 3.208c13.134 0 20.316-10.876 20.316-20.313l-.02-.924c1.394-1 2.608-2.259 3.564-3.687z"/></g></g></svg>